<svg width="16" height="16" xmlns="http://www.w3.org/2000/svg">
  <g transform="translate(1 1)" fill="none" fill-rule="evenodd">
    <rect fill="#904EE2" width="14" height="14" rx="2"/>
    <path d="m9.923 6.757-.002-.004a.479.479 0 0 0 .08-.253.5.5 0 0 0-.5-.5H7V3.5a.5.5 0 0 0-.5-.5.49.49 0 0 0-.406.223.498.498 0 0 0-.066.13L4.081 7.237l.002.003A.489.489 0 0 0 4 7.5a.5.5 0 0 0 .5.5H7v2.5a.493.493 0 0 0 .918.259h.003l.013-.025c.011-.021.023-.04.031-.062l1.958-3.915Z" fill="#FFF"/>
  </g>
</svg>
